<?xml version="1.0" encoding="UTF-8"?>
<svg width="150px" height="150px" viewBox="0 0 150 150" version="1.1" xmlns="http://www.w3.org/2000/svg" xmlns:xlink="http://www.w3.org/1999/xlink">
    <!-- Generator: Sketch 44 (41411) - http://www.bohemiancoding.com/sketch -->
    <title>CLE</title>
    <desc>Created with Sketch.</desc>
    <defs></defs>
    <g id="Page-1" stroke="none" stroke-width="1" fill="none" fill-rule="evenodd">
        <g id="CLE">
            <g id="Page-1" transform="translate(40.000000, 5.000000)">
                <g id="Group-4" transform="translate(0.000000, 0.335000)">
                    <path d="M30.9664,70.6191 C31.5584,69.9821 32.2224,69.3381 32.9054,68.6901 L32.8294,77.0861 L32.8384,77.0781 L32.7244,88.9571 C25.7464,91.0841 22.4164,91.4371 20.0394,90.8801 L19.7404,90.7951 C19.0664,90.5271 18.9494,89.9181 18.9464,89.7531 C18.8324,85.0651 26.9054,74.9801 30.9664,70.6191 M45.2804,72.4241 C45.1524,72.6671 70.9984,57.5881 70.9984,57.5881 L70.9984,52.4281 L69.7344,51.1401 C62.7914,44.5351 52.4484,44.4911 41.9634,47.3501 L41.9734,22.7601 C41.9904,19.2161 42.0274,15.8451 41.7524,12.7081 C41.4584,9.5031 40.8324,6.3971 39.4454,3.5741 L37.6834,0.0001 L36.0324,3.6271 C34.6484,6.6681 33.9854,9.8631 33.6574,13.1271 C33.3424,16.3281 33.3424,19.6911 33.3264,23.2381 L33.0794,50.4081 C22.2724,54.8421 12.3324,61.3391 7.0304,65.7211 L1.2074,74.7381 L8.4484,72.9511 C-2.6676,86.9141 1.2994,96.0541 1.7644,96.9981 C2.9394,100.2901 5.6114,102.9221 9.9454,104.6531 C13.2364,105.9691 16.9664,106.1351 20.1684,105.9851 C24.1714,105.8011 28.3784,104.9051 32.5924,103.5611 L32.5774,105.3431 C28.9584,107.3141 26.0394,110.7751 24.4874,114.9251 C23.8914,116.5561 23.5224,118.2941 23.4254,120.0811 C23.4184,120.3781 23.4234,121.3621 23.3194,122.7131 C23.2174,123.9791 23.0024,125.5801 22.5414,127.1951 L22.2804,128.0991 L21.3354,130.3361 C21.4284,130.7231 24.0154,129.8531 25.1774,129.4281 C25.3514,129.3691 25.6164,129.2671 25.9594,129.0741 C26.5804,128.7261 27.3884,128.1591 28.3764,127.2081 C28.9754,126.6281 29.5094,125.9651 29.9654,125.3521 C30.4024,124.7721 30.8034,124.1881 31.1594,123.6981 C31.6664,122.9981 32.1464,122.2931 32.6204,121.6291 L32.6524,127.6221 L32.6724,131.6081 L32.6754,132.6751 C32.4954,132.9301 32.2764,133.2641 32.0484,133.6791 C31.5144,134.6711 30.2034,137.8671 30.0634,139.6591 C30.0274,140.0901 31.2944,140.0261 33.1424,139.9291 C33.3954,139.9071 33.7604,139.8811 34.2044,139.8181 C35.0414,139.7081 36.1744,139.4941 37.3274,139.1371 C39.3914,138.5011 42.6894,137.0141 43.1554,133.6941 L43.3144,132.5111 L42.9824,132.2891 C47.4004,128.4251 48.5824,124.2191 48.4174,120.7271 C48.3584,119.5311 48.1404,118.4401 47.8694,117.5071 L49.4584,117.7711 L51.3174,118.1011 L51.6434,116.2351 C52.7404,109.8621 49.1304,104.5621 41.9494,103.5291 L41.9494,99.8431 C49.0044,96.4751 55.6574,92.0931 60.8814,87.5511 L61.1304,87.3371 L63.2384,76.7441 L59.1234,79.0251 C52.5044,81.9261 46.4964,84.2281 41.9614,85.8591 L41.9624,61.8901 C43.2494,61.1361 44.5274,60.4801 45.7484,59.9641 C49.1224,58.5451 51.3034,57.9801 52.3154,58.0881 C52.0404,58.9531 51.5884,60.0311 50.9154,61.3431 C50.9154,61.3431 45.5174,71.9941 45.2804,72.4241" id="Fill-1" fill="#FCB61A"></path>
                    <path d="M30.9664,70.6191 C31.5584,69.9821 32.2224,69.3381 32.9054,68.6901 L32.8294,77.0861 L32.8384,77.0781 L32.7244,88.9571 C25.7464,91.0841 22.4164,91.4371 20.0394,90.8801 L19.7404,90.7951 C19.0664,90.5271 18.9494,89.9181 18.9464,89.7531 C18.8324,85.0651 26.9054,74.9801 30.9664,70.6191 M45.2804,72.4241 C45.1524,72.6671 70.9984,57.5881 70.9984,57.5881 L70.9984,52.4281 L69.7344,51.1401 C62.7914,44.5351 52.4484,44.4911 41.9634,47.3501 L41.9734,22.7601 C41.9904,19.2161 42.0274,15.8451 41.7524,12.7081 C41.4584,9.5031 40.8324,6.3971 39.4454,3.5741 L37.6834,0.0001 L36.0324,3.6271 C34.6484,6.6681 33.9854,9.8631 33.6574,13.1271 C33.3424,16.3281 33.3424,19.6911 33.3264,23.2381 L33.0794,50.4081 C22.2724,54.8421 12.3324,61.3391 7.0304,65.7211 L1.2074,74.7381 L8.4484,72.9511 C-2.6676,86.9141 1.2994,96.0541 1.7644,96.9981 C2.9394,100.2901 5.6114,102.9221 9.9454,104.6531 C13.2364,105.9691 16.9664,106.1351 20.1684,105.9851 C24.1714,105.8011 28.3784,104.9051 32.5924,103.5611 L32.5774,105.3431 C28.9584,107.3141 26.0394,110.7751 24.4874,114.9251 C23.8914,116.5561 23.5224,118.2941 23.4254,120.0811 C23.4184,120.3781 23.4234,121.3621 23.3194,122.7131 C23.2174,123.9791 23.0024,125.5801 22.5414,127.1951 L22.2804,128.0991 L21.3354,130.3361 C21.4284,130.7231 24.0154,129.8531 25.1774,129.4281 C25.3514,129.3691 25.6164,129.2671 25.9594,129.0741 C26.5804,128.7261 27.3884,128.1591 28.3764,127.2081 C28.9754,126.6281 29.5094,125.9651 29.9654,125.3521 C30.4024,124.7721 30.8034,124.1881 31.1594,123.6981 C31.6664,122.9981 32.1464,122.2931 32.6204,121.6291 L32.6524,127.6221 L32.6724,131.6081 L32.6754,132.6751 C32.4954,132.9301 32.2764,133.2641 32.0484,133.6791 C31.5144,134.6711 30.2034,137.8671 30.0634,139.6591 C30.0274,140.0901 31.2944,140.0261 33.1424,139.9291 C33.3954,139.9071 33.7604,139.8811 34.2044,139.8181 C35.0414,139.7081 36.1744,139.4941 37.3274,139.1371 C39.3914,138.5011 42.6894,137.0141 43.1554,133.6941 L43.3144,132.5111 L42.9824,132.2891 C47.4004,128.4251 48.5824,124.2191 48.4174,120.7271 C48.3584,119.5311 48.1404,118.4401 47.8694,117.5071 L49.4584,117.7711 L51.3174,118.1011 L51.6434,116.2351 C52.7404,109.8621 49.1304,104.5621 41.9494,103.5291 L41.9494,99.8431 C49.0044,96.4751 55.6574,92.0931 60.8814,87.5511 L61.1304,87.3371 L63.2384,76.7441 L59.1234,79.0251 C52.5044,81.9261 46.4964,84.2281 41.9614,85.8591 L41.9624,61.8901 C43.2494,61.1361 44.5274,60.4801 45.7484,59.9641 C49.1224,58.5451 51.3034,57.9801 52.3154,58.0881 C52.0404,58.9531 51.5884,60.0311 50.9154,61.3431 C50.9154,61.3431 45.5174,71.9941 45.2804,72.4241" id="Stroke-3" stroke="#FEFEFE" stroke-width="2"></path>
                </g>
                <path d="M30.9664,70.9541 C31.5584,70.3171 32.2224,69.6731 32.9054,69.0251 L32.8294,77.4211 L32.8384,77.4131 L32.7244,89.2921 C25.7464,91.4191 22.4164,91.7721 20.0394,91.2151 L19.7404,91.1301 C19.0664,90.8621 18.9494,90.2531 18.9464,90.0881 C18.8324,85.4001 26.9054,75.3151 30.9664,70.9541 M45.2804,72.7591 C45.1524,73.0021 70.9984,57.9231 70.9984,57.9231 L70.9984,52.7631 L69.7344,51.4751 C62.7914,44.8701 52.4484,44.8261 41.9634,47.6851 L41.9734,23.0951 C41.9904,19.5511 42.0274,16.1801 41.7524,13.0431 C41.4584,9.8381 40.8324,6.7321 39.4454,3.9091 L37.6834,0.3351 L36.0324,3.9621 C34.6484,7.0031 33.9854,10.1981 33.6574,13.4621 C33.3424,16.6631 33.3424,20.0261 33.3264,23.5731 L33.0794,50.7431 C22.2724,55.1771 12.3324,61.6741 7.0304,66.0561 L1.2074,75.0731 L8.4484,73.2861 C-2.6676,87.2491 1.2994,96.3891 1.7644,97.3331 C2.9394,100.6251 5.6114,103.2571 9.9454,104.9881 C13.2364,106.3041 16.9664,106.4701 20.1684,106.3201 C24.1714,106.1361 28.3784,105.2401 32.5924,103.8961 L32.5774,105.6781 C28.9584,107.6491 26.0394,111.1101 24.4874,115.2601 C23.8914,116.8911 23.5224,118.6291 23.4254,120.4161 C23.4184,120.7131 23.4234,121.6971 23.3194,123.0481 C23.2174,124.3141 23.0024,125.9151 22.5414,127.5301 L22.2804,128.4341 L21.3354,130.6711 C21.4284,131.0581 24.0154,130.1881 25.1774,129.7631 C25.3514,129.7041 25.6164,129.6021 25.9594,129.4091 C26.5804,129.0611 27.3884,128.4941 28.3764,127.5431 C28.9754,126.9631 29.5094,126.3001 29.9654,125.6871 C30.4024,125.1071 30.8034,124.5231 31.1594,124.0331 C31.6664,123.3331 32.1464,122.6281 32.6204,121.9641 L32.6524,127.9571 L32.6724,131.9431 L32.6754,133.0101 C32.4954,133.2651 32.2764,133.5991 32.0484,134.0141 C31.5144,135.0061 30.2034,138.2021 30.0634,139.9941 C30.0274,140.4251 31.2944,140.3611 33.1424,140.2641 C33.3954,140.2421 33.7604,140.2161 34.2044,140.1531 C35.0414,140.0431 36.1744,139.8291 37.3274,139.4721 C39.3914,138.8361 42.6894,137.3491 43.1554,134.0291 L43.3144,132.8461 L42.9824,132.6241 C47.4004,128.7601 48.5824,124.5541 48.4174,121.0621 C48.3584,119.8661 48.1404,118.7751 47.8694,117.8421 L49.4584,118.1061 L51.3174,118.4361 L51.6434,116.5701 C52.7404,110.1971 49.1304,104.8971 41.9494,103.8641 L41.9494,100.1781 C49.0044,96.8101 55.6574,92.4281 60.8814,87.8861 L61.1304,87.6721 L63.2384,77.0791 L59.1234,79.3601 C52.5044,82.2611 46.4964,84.5631 41.9614,86.1941 L41.9624,62.2251 C43.2494,61.4711 44.5274,60.8151 45.7484,60.2991 C49.1224,58.8801 51.3034,58.3151 52.3154,58.4231 C52.0404,59.2881 51.5884,60.3661 50.9154,61.6781 C50.9154,61.6781 45.5174,72.3291 45.2804,72.7591" id="Fill-5" fill="#FCB61A"></path>
                <path d="M69.4947,57.0738 L69.4477,53.7468 L52.4997,64.1158 C52.3717,64.4218 50.1617,68.6828 49.9477,68.8898 L69.4947,57.0738 Z" id="Fill-7" fill="#000840"></path>
                <path d="M5.8131,72.1807 C7.6811,71.7187 9.7691,71.1997 11.8341,70.7047 C13.0131,69.3247 14.1531,68.1017 15.1701,67.0767 C13.0541,67.5607 10.7171,68.0977 8.4301,68.6247 C7.9981,69.2037 6.0721,71.8347 5.8131,72.1807" id="Fill-9" fill="#000840"></path>
                <path d="M40.2437,95.9864 C39.3677,96.4124 38.4787,96.8194 37.5847,97.2114 C37.0187,97.4604 36.4537,97.7094 35.8917,97.9404 C35.5007,98.0984 35.1037,98.2414 34.7157,98.3924 C29.3597,100.4724 23.9377,101.8384 18.9057,102.0734 C15.8107,102.2174 12.3897,102.0304 9.4797,100.8744 C6.8057,99.8054 4.9377,98.4144 3.7037,96.8064 C4.6447,99.4944 6.8507,101.7984 10.8317,103.3814 C13.7507,104.5434 17.1567,104.7224 20.2597,104.5774 C24.8607,104.3644 29.7857,103.2054 34.6907,101.4234 C35.0837,101.2824 35.4767,101.1464 35.8707,100.9984 C36.4407,100.7784 37.0047,100.5374 37.5777,100.3004 C38.4727,99.9314 39.3627,99.5484 40.2437,99.1394 C47.5077,95.8024 54.4287,91.3004 59.8287,86.6034 L60.8297,81.9524 C55.4697,87.0964 48.1037,92.1994 40.2437,95.9864" id="Fill-11" fill="#000840"></path>
                <path d="M48.6041,114.75 C42.2841,113.03 34.8931,114.581 31.5281,118.649 C30.1391,120.319 28.8911,122.788 26.4351,125.316 C26.9591,122.266 26.9331,121.277 27.0271,120.173 C27.4201,115.302 29.9631,111.184 35.0481,108.747 C35.0521,108.948 35.1041,109.135 35.2171,109.299 C35.4261,109.633 35.8211,109.881 36.3191,110 C36.8041,110.076 36.0321,109.865 36.3191,110.006 C36.3971,110.02 36.4761,110.041 36.5571,110.05 C36.5731,110.054 36.5871,110.054 36.6011,110.054 C36.6771,110.068 36.7361,110.073 36.8041,110.076 C36.8261,110.082 36.8461,110.082 36.8721,110.082 C36.9421,110.086 37.0041,110.086 37.0701,110.086 L37.1521,110.086 C37.2361,110.086 37.3281,110.082 37.4261,110.073 C37.5021,110.068 37.5881,110.05 37.6691,110.041 C37.6821,110.041 37.6931,110.029 37.7091,110.029 C37.7791,110.019 37.8541,110 37.9181,109.981 L37.9381,109.981 C38.0931,109.943 38.2501,109.891 38.3981,109.831 C38.9391,109.648 39.3741,109.344 39.5421,108.999 L39.5421,108.995 C39.5951,108.916 39.6461,108.84 39.6791,108.76 C41.5061,109.146 43.1121,110.106 43.8081,111.208 C40.5401,111.061 35.7571,112.139 31.8131,116.69 C37.2201,112.395 43.4431,112.372 47.4321,113.383 C47.5711,110.988 44.3061,108.451 42.5041,107.458 C45.7501,108.518 49.2281,111.355 48.6041,114.75 L48.6041,114.75 Z M43.4371,128.082 C45.0911,124.574 45.5751,118.399 41.7491,115.652 L43.0511,115.665 C46.8941,118.745 45.1941,126.678 43.4371,128.082 L43.4371,128.082 Z M39.0831,131.336 C42.5961,122.866 40.0321,116.58 40.0671,116.46 C44.4151,117.106 45.8511,126.548 39.0831,131.336 L39.0831,131.336 Z M37.1671,133.043 C37.1671,133.719 35.7391,133.716 35.7441,133.194 L35.8051,116.953 C35.9331,116.819 36.9161,116.375 37.3121,116.338 L37.1671,133.043 Z M40.2441,105.706 L40.2441,101.209 C39.3631,101.606 38.4681,101.985 37.5741,102.341 L37.5641,107.007 C37.5611,108.118 35.7671,108.31 35.8361,107.475 L35.8631,103.01 C35.4641,103.158 35.0681,103.296 34.6721,103.439 L34.6381,106.947 L34.4111,107.097 C30.8901,108.747 27.9551,111.999 26.4961,115.908 C26.4741,115.964 26.4551,116.014 26.4361,116.063 C25.9071,117.515 25.5771,119.065 25.5021,120.657 C25.4651,121.261 25.5411,124.703 24.5421,128.192 C24.5421,128.178 25.4651,128.048 27.2441,126.329 C28.2311,125.378 29.1111,124.033 29.8191,123.07 C31.4461,120.834 32.7431,118.563 34.6611,117.582 L34.6761,119.582 C34.7021,123.396 34.7531,133.749 34.7451,133.785 C34.7351,133.845 33.1041,135.568 32.8751,138.513 C32.8651,138.636 40.8871,138.067 41.4611,133.91 C41.4611,133.91 39.9181,132.895 39.9721,132.863 C51.2701,125.021 44.9811,115.612 44.9811,115.612 C47.7201,116 49.2421,116.271 49.9651,116.4 C50.9461,110.713 47.5731,106.029 40.2441,105.706 L40.2441,105.706 Z" id="Fill-13" fill="#000840"></path>
                <path d="M40.2516,89.0127 C39.2546,89.3617 38.3706,89.6607 37.5966,89.9177 C36.9566,90.1337 36.4006,90.3177 35.9306,90.4707 C35.4646,90.6177 35.0676,90.7467 34.7856,90.8327 C34.3896,90.9577 34.1706,91.0287 34.1706,91.0287 C4.4066,100.2967 13.9236,80.9517 27.5236,66.4727 C28.4526,65.4837 30.5236,63.5147 32.9766,61.5417 L33.0566,52.9957 C23.0556,57.2147 13.7926,63.2087 8.5306,67.5597 C11.9276,66.6167 15.3926,65.8697 18.8336,65.0857 C-10.7354,93.3617 6.3916,108.2997 34.7316,96.9577 C35.1156,96.8067 35.5096,96.6177 35.8966,96.4587 C36.4576,96.2197 37.0186,95.9927 37.5876,95.7367 C38.4636,95.3407 39.3546,94.9077 40.2436,94.4597 C46.5786,91.3137 53.3076,86.9607 60.1086,81.2157 C52.1166,84.7247 44.9996,87.3627 40.2516,89.0127" id="Fill-15" fill="#690031"></path>
                <path d="M68.6051,52.9815 C62.1341,46.8235 52.1551,46.9355 41.9631,49.8325 L41.9631,55.8205 C49.7881,52.0165 58.8321,50.8235 52.7751,62.6835 L68.6051,52.9815 Z" id="Fill-17" fill="#690031"></path>
                <path d="M43.8434,56.1968 C43.2464,56.4488 42.6244,56.7478 41.9624,57.0908 L41.9624,60.3288 C43.1074,59.6818 44.1744,59.1368 45.1974,58.7058 C48.7134,57.2248 51.7194,56.2908 53.3764,56.8238 C53.6254,52.8878 49.3634,53.8738 43.8434,56.1968" id="Fill-19" fill="#000840"></path>
                <path d="M32.9615,63.0782 C31.2755,64.4642 29.7125,65.9052 28.4095,67.3052 C24.5885,71.4202 15.7505,82.1412 15.8925,87.7702 C15.9245,89.2452 16.4425,90.2812 17.2995,90.9742 C17.2715,90.7522 17.2505,90.5232 17.2435,90.2812 C17.1035,84.6492 25.9425,73.9302 29.7675,69.8182 C30.7025,68.8122 31.7775,67.7842 32.9265,66.7672 L32.9615,63.0782 Z" id="Fill-21" fill="#000840"></path>
                <path d="M37.9312,4.8863 C35.3822,10.4783 35.4262,16.7733 35.3982,23.7253 L35.1982,45.5413 L34.9822,69.1873 L34.9812,69.1873 L34.9202,75.9693 L34.9202,75.9803 L34.8052,88.8533 C35.1212,88.7523 35.5102,88.6213 35.9412,88.4803 L36.0172,75.0603 L36.0172,75.0563 L36.0752,64.1943 L36.0962,60.6663 L36.1012,59.2143 L36.1422,51.7913 L36.2532,32.7403 L36.3182,17.9693 C36.5952,18.4863 37.6282,20.5403 37.7182,27.8093 L37.6712,51.2523 L37.6632,58.1933 L37.6612,59.5823 L37.6532,63.0353 L37.6362,73.7053 L37.6362,73.7093 L37.6282,73.7293 L37.5962,87.9283 C38.3832,87.6643 39.2712,87.3563 40.2522,87.0153 L40.2572,71.5163 L40.2572,71.5143 L40.2572,69.1873 L40.2582,53.4233 L40.2582,50.7263 L40.2582,50.3373 L40.2582,49.5743 L40.2582,45.5413 L40.2592,45.5413 L40.2652,23.2353 C40.3012,16.2763 40.4282,9.9663 37.9312,4.8863" id="Fill-23" fill="#000840"></path>
            </g>
        </g>
    </g>
</svg>