<?xml version="1.0" encoding="utf-8"?>
<!-- Generator: Adobe Illustrator 21.0.0, SVG Export Plug-In . SVG Version: 6.00 Build 0)  -->
<svg version="1.1" id="Layer_1" xmlns="http://www.w3.org/2000/svg" xmlns:xlink="http://www.w3.org/1999/xlink" x="0px" y="0px"
	 viewBox="0 0 150 150" style="enable-background:new 0 0 150 150;" xml:space="preserve">
<style type="text/css">
	.st0{fill:#BEC0C2;}
	.st1{fill:#002D62;}
	.st2{fill:#FDBB30;}
</style>
<g>
	<path class="st0" d="M115.7,42.5c-6.6-7.9-16.1-12.4-26.7-12.4l-42.5,0l-19.7,89.7l36.3,0l5.2-21.7c4.9,0,17.7,0,17.7,0
		c12.2,0.1,22.1-4,28.9-11.9C127,73,124.9,53.6,115.7,42.5z"/>
	<path class="st1" d="M66.4,95.8l-5.2,21.7l-31.5,0l18.7-85l40.6,0c10.1,0,18.8,4.1,24.9,11.5c9,10.9,9.9,28.9-0.9,40.7
		c-6.6,7.8-16.3,11.2-27,11.1L66.4,95.8z"/>
	<path class="st2" d="M44.2,51.4l17.8,0c2,0,4.2,1.7,3.3,4.3c-0.6,1.6-1,3.5-1.2,5.2c-0.2,1.4,1.4,2.2,2.2,2.2l36.3,0
		c0.7,0,1-0.2,1-0.5c0-0.3,0-1.5-0.2-2.4c-0.1-0.8-0.3-0.9-0.9-0.9c-4.5,0-6.4-2-11.1-5.1c-4.7-3.1-11.7-4.8-17.7-4.8l-29.1,0
		L44.2,51.4z"/>
	<path class="st2" d="M66.2,74.9c-0.6-1.3-1.2-2.9-1.6-4.4c-0.4-1.9-2-3.4-4.8-3.4l-19.1,0l0.5-2.1l61.9,0c0.6,0,0.5,0.3,0.5,0.9
		c0,0.7-0.2,2-0.3,2.7c-0.1,0.7-0.7,0.6-1.3,0.6c-1.4,0-4,0.4-5.5,1.5c-2.6,1.9-8,5.3-11.1,6.3C82.1,78,69.7,81.8,66.2,74.9"/>
	<path class="st2" d="M37.3,82.6l32.3,0c1.4,0,2.7,0.3,3.6,1.1c2.7,2.3,6.3,3.9,10,5c1.7,0.5,4.6-0.1,7.2-1.6
		c6.5-3.7,10.6-10.6,12-15.1c0.4-1.2-0.3-1.1-1.2-1c-2.7,0.2-5.6,2.7-9.4,5.1c-3.8,2.4-11.4,4.7-18.7,4.7l-35.4,0L37.3,82.6z"/>
	<path class="st2" d="M84.7,39.3c0.5-0.1,2.1-0.2,3,0.2c6.1,2.4,11.9,8.8,14.4,15.6c0.5,1.3,0.6,2.1,0,2.2c-2.8,0.3-4.1-1.1-7.4-3.3
		c-3.3-2.2-6.4-3.8-10.6-5.1c-4.1-1.3-11.7-1.5-12.6-1.5c-1,0-0.8-0.4-0.4-0.9C74.7,42.9,79.5,40.3,84.7,39.3z"/>
	<path class="st2" d="M114.2,62.6c0,0.3-0.3,0.6-0.6,0.6c0,0-7.1,0-7.1,0c-0.9,0-0.9-0.4-1-0.9c0-0.5-0.2-1.6-0.2-2.2
		c0-0.6-0.2-1.3,0.6-1.6c2-0.8,3.8-2.8,4.7-4.4c0.3-0.6,0.7-1.5,1.2-0.7C113.5,56,114,59.3,114.2,62.6z"/>
	<path class="st2" d="M111.7,75.4c-0.1,0.2-0.6,0.4-0.7,0c-1-2.8-3.5-4.7-5.2-5.6c-0.5-0.3-0.6-0.6-0.5-1.1c0.1-0.5,0.3-2.1,0.3-2.8
		c0-0.5,0.2-0.9,0.7-0.9l7.4,0c0.3,0,0.6,0.2,0.6,0.4C114.2,68.9,113.1,72.4,111.7,75.4z"/>
	<path class="st2" d="M92.5,89.2c-0.5,0.1-1.7-0.1,0.1-1.1c5.4-3.1,10.1-10.4,11.4-14.6c0.5-1.6,0.5-1.7,1.2-1.5
		c0.8,0.2,2.1,1.4,3.1,2.7c1,1.4,1.4,4,0.8,4.8C105.3,84.6,99.1,88.2,92.5,89.2z"/>
	<path class="st2" d="M106.1,56.1c-1.2,0.7-1.5,0.5-1.8-0.4c-2.3-8.2-9.2-14.2-12-16c-0.5-0.3-0.4-0.6,0-0.5
		c6.7,0.9,13.3,4.6,16.6,9.6C110.9,51.7,107.3,55.5,106.1,56.1z"/>
</g>
</svg>
