<?xml version="1.0" encoding="utf-8"?>
<!-- Generator: Adobe Illustrator 19.2.0, SVG Export Plug-In . SVG Version: 6.00 Build 0)  -->
<svg version="1.1" id="Layer_1" xmlns="http://www.w3.org/2000/svg" xmlns:xlink="http://www.w3.org/1999/xlink" x="0px" y="0px"
	 viewBox="0 0 930 217" style="enable-background:new 0 0 930 217;" xml:space="preserve">
<style type="text/css">
	.st0{fill:#FFFFFF;}
</style>
<g>
	<path class="st0" d="M233.1,49.6c-11.8,35.7-23.5,71.4-35.3,107c-1,3.3-4.6,5-7.8,4.8c-45.7,0-91.3,0-137,0
		c-2.1,0.2-4.5-0.4-5.1-2.8c0.5-2.8,1.8-5.4,2.8-8.1C64,115.4,77.3,80.3,90.5,45.2c0.8-2.6,3-4.7,5.7-5.3c0.7-0.1,2.1-0.2,2.8-0.2
		c42.7,0,85.3,0,128,0c2.8,0.1,6.6,0,7.7,2.3C235.4,43.5,233.9,47,233.1,49.6z"/>
	<path class="st0" d="M119.6,41.5c35.7-0.1,71.3-0.9,107-1c1.9,0,5.5,0.1,6.7,1.9c0.8,1.1-0.8,5-1.6,7.2
		c-5.1,14.3-10.2,28.7-15.4,42.9C166.5,139,169,106.8,169,106.8l0,0l-41.2-14.5l0,0l0,0l0,0l0,0l0,0c0,0-38.7-29.6-39.2-30.1
		c0.5,0.5,0,0,0,0c1.9-6.5,3.1-14.4,9.4-18.1C104.6,40.4,112.4,41.9,119.6,41.5z"/>
	<g>
		<g>
			<path class="st0" d="M349.3,59.9c5.9-13,20.6-21.1,34.7-20.4c13.7,0,27.3,0,41,0c5.8,0.3,12.2,2.4,15.5,7.5
				c2.9,4.1,3.1,9.5,2,14.2c-7.5,20.7-32.6,86.7-36.9,99.3c-9,0.1-17.9,0-26.9,0c5.4-14.6,11.1-29.1,16.1-43.9
				c-0.3,0.2-0.9,0.8-1.2,1c-13.1-0.1-26.2,0-39.4,0c-4.4,14.6-10.9,28.4-15.7,42.9c-9,0.1-17.9,0-26.9,0
				C324.2,126.9,336.5,93.3,349.3,59.9z M373.2,67.5c-3.4,9-6.7,18-10.1,27c13.4,0.1,26.8-0.2,40.2,0.1c4-10.4,7.8-20.8,11.7-31.1
				c-0.5-0.2-1.5-0.5-2-0.7c-10.6-0.2-21.3,0-31.9-0.1C377.8,62.5,374.2,64.3,373.2,67.5z"/>
		</g>
		<g>
			<path class="st0" d="M248.4,40.6c21.9-0.3,43.7,0,65.6-0.1c6-0.1,12.7,1.5,16.8,6.4c4,4.8,4.2,11.7,2.1,17.3
				c-2.7,7.3-5.4,14.5-8.1,21.8c-2.3,5.8-3.9,12.2-8.4,16.9c-4.6,5.3-10.8,8.8-17.4,11c2.6,15.6,5.8,31.1,8.4,46.6
				c-9.5,0-19,0-28.5,0c-2.9-14.9-5.7-29.9-8.2-44.8c-7.8-0.2-15.5,0-23.3-0.1c-5.6,14.9-11.3,29.8-16.8,44.8
				c-9,0.2-18,0.1-26.9,0.1C218.4,120.5,233.7,80.7,248.4,40.6z M265.8,66.1c-3.2,8.8-6.5,17.6-9.9,26.3c11.7,0.1,23.5,0.1,35.2,0
				c2.8,0.1,5.3-2.1,6.1-4.7c2.8-7.8,5.8-15.4,8.6-23.2l-1.1-0.7c-12.2-0.3-24.5-0.1-36.7-0.1C266.5,63.4,266.2,65.1,265.8,66.1z"/>
		</g>
		<path class="st0" d="M455.1,40.5c33.4,0,66.7,0,100,0c-3.1,7.7-5.5,15.7-9,23.2c-12.1,0.1-24.2,0.1-36.3,0
			c-12.1,32.2-24.3,64.4-36.2,96.7c-9,0.1-17.9,0-26.9,0.1c12.1-32.2,24-64.5,36.3-96.5c-12.2-0.5-24.4-0.1-36.6-0.2
			C449.2,56,452.2,48.2,455.1,40.5z"/>
		<path class="st0" d="M565,40.5c8.9,0,17.8,0,26.7,0c-14.1,37.6-44.3,117.6-45.1,120c-9,0.1-17.9,0-26.9,0
			C534.7,120.4,549.6,80.3,565,40.5z"/>
		<path class="st0" d="M602,40.5c8.8-0.1,17.6-0.1,26.5,0c-0.4,2.9,16.2,76.1,15.9,77.7c0,0,19.8-51.8,29.7-77.7
			c8.9,0,17.8,0,26.7,0c-13.1,34.8-43.4,114.7-45.1,119.9c-9,0.1-18,0-26.9,0.1c-5.7-25-10.9-50.1-16.8-75.1
			c-9.2,25.1-19,50-28.3,75c-9,0.1-17.9,0-26.9,0C565.2,137.9,602.2,41.3,602,40.5z"/>
		<path class="st0" d="M702.2,56.6c6.3-9.6,17.5-15.5,28.9-16.1c13,0,26,0,39,0c5.2,0.1,10.8,1.6,14.5,5.4c3.6,3.8,5.4,9.6,4,14.7
			c-1.8,7.6-5.6,14.6-7.8,22c-9,0.2-18,0.1-27,0.1c2.3-6.1,4.5-12.2,6.8-18.3c-1.7-1.2-3.8-0.8-5.7-0.9c-8,0.1-16,0-24,0
			c-2.7-0.1-5.8,1.4-6.8,4c-2,4.8-15.2,39.3-17.2,44.8c-3,8.3-6.3,16.6-9.2,25c8.4,1.2,16.9,0.2,25.3,0.6c3.9-0.1,9.1,0.7,11.4-3.3
			c3.1-6.6,4.9-13.7,8-20.3c-1.1-0.5-2.2-0.8-3.3-0.7c-9.2-0.1-18.1,0.3-27.3-0.2c1.5-4.8,8.3-20.5,9.3-22.8c19,0,38-0.2,57,0
			c-5.8,14.4-25.2,66.4-26.3,69.9c-21.8,0.1-43.7,0-65.5,0.1c-7.2,0.3-14.8-4.6-16.4-11.8c-1.9-5.5,0.5-11,2.5-16.1
			C675.2,124.7,700.6,60.4,702.2,56.6z"/>
		<path class="st0" d="M798.5,56c7.6-10.9,21.3-16.6,34.5-15.5c11,0,22,0,33,0c6.1,0.1,12.8,2.2,16.3,7.6c2.6,3.8,3.5,8.9,2.1,13.3
			c-2.1,7.2-5.3,14.1-7.6,21.2c-9,0.2-18,0-27,0.1c2.3-6.1,4.6-12.2,6.8-18.3c-1.6-1.2-3.7-0.9-5.6-0.9c-8,0.1-16,0-24,0
			c-3-0.1-6.1,1.7-7.1,4.6c-1.9,4.9-3.7,9.8-5.5,14.7c1.1,0.5,2.3,1.2,3.5,1.5c10.8,2.9,21.5,5.8,32.2,8.7
			c5.8,1.7,12.2,4.7,14.7,10.6c1.8,3.7,1.4,8,0,11.7c-2.6,7-5.2,14-7.8,21.1c-4.4,14.7-19.8,25.3-35,24.1c-13.4,0-26.7,0-40,0
			c-7.3,0.2-14.9-4.8-16.4-12.2c-1.4-4-0.1-8.2,1.2-12c2.2-5.7,4.3-11.4,6.4-17.1c9,0,17.9,0,26.9,0c-2.2,6-5,11.9-6.5,18.2
			c8,1.1,16.2,0.2,24.3,0.5c4.4,0,10.1,0.8,12.8-3.6c2.6-5.8,4.4-11.9,7-17.7c-12.6-4.5-25.9-7-38.7-11.2c-5-1.8-10.1-4.8-12.2-10
			c-2.1-4.5-0.7-9.5,1-13.8C790.2,76,796.8,58.8,798.5,56z"/>
	</g>
	<g>
		<path d="M176.8,93.9c-9.5,6.9-18.9,14-28.4,20.9c2.1-7,4.6-13.8,6.6-20.8c-16.4-0.1-32.9,0.3-49.3-0.1c2.6-2.2,5.7-3.5,9-4
			c8.3-1.5,16.6-2.9,24.8-4.4c6.7-1.3,13.5-3.6,18.8-8c5.1-4.2,8.3-11.1,7-17.7c-1-4.2-4.8-7-8.6-8.4c-8.2-3.1-17.1-3-25.8-3
			c-10.3,0.1-21.1,2-29.6,8c-5.4,3.7-9.1,9.2-11.7,15c8.5,0,17,0,25.5,0c1.4-2.3,2.8-4.8,5.2-6.1c4.4-2.4,9.6-2.2,14.4-1.9
			c1.9,0.3,4.4,0.7,5.1,2.8c0.4,2.9-2.2,5.2-4.7,5.9c-13.8,3.5-28.8,4.1-41,12.2c-8.9,5.6-15,14.8-18.3,24.6c17.1,0.1,34.3,0,51.4,0
			c-4.8,14.7-9.4,29.4-14.1,44.1c7.8,0,15.5,0,23.2,0c1.3-3.9,2.6-7.9,3.8-11.9c0.9-5.8,7.3-7.4,11.2-10.7
			c2.9,7.5,5.9,15.1,8.9,22.6c10.3-0.1,20.6,0.1,30.9-0.1c-5.8-11.9-11.2-24-17-35.9c11-7.8,22.6-14.9,33.5-22.9
			C197.2,93.8,187,94,176.8,93.9z"/>
	</g>
</g>
</svg>
